<svg width="53" height="65" viewBox="0 0 53 65" fill="none" xmlns="http://www.w3.org/2000/svg">
<path d="M20.8295 47.7404C20.2149 49.0089 20.4891 51.0104 20.7633 52.7487C20.9713 54.0548 21.3306 55.4456 22.3706 56.2631C22.9568 56.7237 23.6848 56.949 24.4129 57.1277C27.741 57.9262 31.2867 57.8136 34.5486 56.8083C35.201 56.6015 35.8629 56.3572 36.4018 55.9436C37.2622 55.2764 37.7255 54.224 38.0659 53.1904C38.5292 51.7809 39.6732 48.6049 38.255 47.8249C37.0069 47.139 32.998 47.9847 31.5041 47.9753C30.3695 47.9753 29.2349 47.9565 28.1192 47.6934C26.8428 47.4021 25.5948 46.7914 24.3089 46.5564C22.3233 46.1899 21.3116 46.7444 20.8295 47.7404Z" fill="#2F3F47"/>
<path d="M28.9456 58.9595C28.9551 58.8469 28.9645 58.7342 28.9739 58.6121C27.9906 57.9447 26.2604 58.161 25.2204 58.4994C24.1047 58.8564 24.1047 59.5518 24.1141 60.6982C24.1235 61.3465 24.1803 62.089 24.6814 62.502C25.0691 62.8309 25.6174 62.8684 26.1185 62.906C26.5724 62.9346 27.0262 62.9626 27.4801 62.9816C27.7921 63.0001 28.142 63.0097 28.3878 62.8029C28.6336 62.5961 28.6714 62.2392 28.6998 61.9287C28.7849 60.9425 28.8606 59.9558 28.9456 58.9595Z" fill="#2F3F47"/>
<path d="M29.854 58.9595C29.8446 58.8469 29.8352 58.7342 29.8257 58.6121C30.809 57.9447 32.5393 58.161 33.5793 58.4994C34.695 58.8564 34.695 59.5518 34.6855 60.6982C34.6761 61.3465 34.6194 62.089 34.1182 62.502C33.7306 62.8309 33.1822 62.8684 32.6811 62.906C32.2273 62.9346 31.7734 62.9626 31.3196 62.9816C31.0075 63.0001 30.6577 63.0097 30.4119 62.8029C30.1661 62.5961 30.1282 62.2392 30.0999 61.9287C30.0148 60.9425 29.9391 59.9558 29.854 58.9595Z" fill="#2F3F47"/>
<path d="M6.03266 11.8361C6.06102 12.071 6.08943 12.3153 6.00435 12.5408C5.93816 12.7194 5.80577 12.8603 5.67338 13.0012C5.11553 13.5745 4.51043 14.11 3.85803 14.5799C3.12054 14.4765 2.40195 14.2792 1.7212 13.9785C1.59828 13.9221 1.46592 13.8564 1.38083 13.7436C1.31465 13.6591 1.29575 13.5463 1.27684 13.4429C1.02155 12.2402 0.766272 11.028 0.510986 9.82519C0.889186 9.57152 1.30519 9.36481 1.73066 9.20505C1.90085 9.92857 2.07102 10.6616 2.24121 11.3851C2.40194 12.0804 2.66673 12.8885 3.35695 13.0858C3.77297 12.7288 4.18894 12.3623 4.60495 12.0052C4.6806 11.9394 4.74679 11.8737 4.79407 11.7891C4.84134 11.6858 4.82244 11.5636 4.80353 11.4414C4.69953 10.7367 4.53878 10.0319 4.32132 9.34598C4.67115 9.28019 5.01157 9.21447 5.3614 9.14868C5.79635 9.96617 5.91921 10.9152 6.03266 11.8361Z" fill="#2F3F47"/>
<path d="M2.79664 14.5986C2.78718 14.6362 2.79665 14.6738 2.8061 14.7114C2.91011 15.1436 3.01413 15.5759 3.11814 16.0081C3.79889 15.8484 4.47019 15.6323 5.12259 15.3785C5.0564 15.0027 4.95238 14.6362 4.81056 14.2885C4.78219 14.2133 4.73488 14.1287 4.65925 14.1006C4.61197 14.0818 4.55526 14.0912 4.50799 14.1006C3.96906 14.1945 3.43959 14.3261 2.92902 14.4953C2.87229 14.5234 2.81555 14.5516 2.79664 14.5986Z" fill="#2F3F47"/>
<path d="M2.94096 16.4216C2.87477 17.2203 3.98097 18.6956 4.32135 19.3533C4.77519 20.246 5.22904 21.148 5.87198 21.9091C6.51491 22.6797 7.36584 23.3093 8.34916 23.516C8.90702 23.6287 9.48376 23.6005 10.0511 23.5254C11.7529 23.3093 13.4076 22.6985 14.8448 21.7589C14.9582 21.6837 15.0811 21.5991 15.1284 21.4675C15.1757 21.336 15.1284 21.1856 15.0811 21.0447C14.9015 20.5091 14.7218 19.9171 14.4477 19.4285C13.9655 18.564 14.268 18.7144 13.4927 18.7801C12.897 18.8271 12.0461 19.4473 11.4126 19.607C10.6751 19.7856 9.90922 19.8795 9.16232 19.9735C8.68955 20.0299 8.16011 20.0769 7.76301 19.8137C7.54554 19.6634 7.39426 19.4473 7.25246 19.2218C6.40147 17.9063 5.62617 16.5438 4.94541 15.1437C4.83195 14.8994 3.09222 15.9142 2.97876 16.2994C2.95039 16.337 2.94096 16.3746 2.94096 16.4216Z" fill="#516770"/>
<g opacity="0.15">
<path opacity="0.15" d="M10.0427 23.0085C9.68334 22.144 9.52265 21.2795 9.4754 20.3587C9.46593 20.1802 9.2201 20.1519 9.19174 20.3398C9.03099 21.3265 9.19174 22.3319 9.54154 23.2622C9.65504 23.6004 10.175 23.3468 10.0427 23.0085Z" fill="#272525"/>
<path opacity="0.15" d="M8.40585 23.0743C8.16002 22.191 8.25458 21.4862 8.54765 20.6312C8.58549 20.5184 8.41527 20.4339 8.35855 20.5372C8.09383 20.9694 7.80075 21.3171 7.71561 21.8339C7.63053 22.3226 7.64942 22.8018 7.82911 23.2716C7.94255 23.6005 8.50035 23.4125 8.40585 23.0743Z" fill="#272525"/>
</g>
<path d="M17.2581 15.5571C15.9722 16.1773 15.6602 17.8404 15.5467 19.2593C14.8092 27.9793 15.0929 36.7933 16.3788 45.4475C16.5395 46.4999 16.7665 47.6463 17.5985 48.3134C18.1374 48.7457 18.8465 48.896 19.5273 49.0182C26.4578 50.2773 33.6152 50.2867 40.5457 49.0464C40.7726 49.0088 41.0185 48.9618 41.2076 48.8114C41.4628 48.6141 41.5574 48.2853 41.633 47.9752C44.1197 38.3061 43.5335 28.1579 42.9 18.2069C42.8811 17.8593 42.8527 17.5022 42.692 17.2015C42.4934 16.835 42.1247 16.5907 41.7465 16.4028C39.5908 15.2752 37.0662 15.1812 34.6363 15.1437C29.4172 15.0497 24.198 15.0966 18.9789 15.2658C18.3927 15.2752 17.7781 15.3034 17.2581 15.5571Z" fill="#EAF1F2"/>
<path d="M20.8607 12.7946C26.562 13.9503 32.3863 13.8564 38.0688 12.522C39.2696 12.2401 40.5649 11.8267 41.378 10.483C42.7774 8.16207 41.8697 4.22489 40.1111 2.50533C38.3524 0.785756 36.1116 0.663573 34.0032 0.597799C30.6183 0.494436 27.2144 0.391093 23.8674 1.08644C21.9291 1.49049 19.8963 2.27038 18.601 4.4128C17.3056 6.55522 17.2205 10.4266 18.8751 11.9488C19.4519 12.4845 20.1704 12.6536 20.8607 12.7946Z" fill="#EAF1F2"/>
<path d="M22.3054 59.4201C27.0235 59.7865 31.8361 59.7585 36.5447 59.3355C37.5374 59.2413 38.6059 59.1102 39.2772 58.6871C40.4306 57.9447 39.6837 56.6951 38.2276 56.1499C36.7715 55.6051 34.9184 55.5675 33.1692 55.5394C30.3705 55.5018 27.5529 55.4736 24.7826 55.699C23.1847 55.8306 21.4923 56.0748 20.4239 56.7607C19.3555 57.4471 19.2799 58.6776 20.6508 59.1573C21.1425 59.317 21.7287 59.373 22.3054 59.4201Z" fill="#EAF1F2"/>
<path d="M24.0836 9.98501C27.8466 10.483 31.6759 10.4454 35.4296 9.86286C36.2238 9.7407 37.0747 9.56217 37.6042 8.97958C38.5308 7.97416 37.9256 6.27334 36.7722 5.53102C35.6186 4.78869 34.1342 4.7323 32.7443 4.70412C30.5129 4.65713 28.2721 4.61019 26.0596 4.92028C24.7832 5.09881 23.4406 5.42766 22.5897 6.3579C21.7387 7.28818 21.682 8.96081 22.7693 9.60913C23.157 9.85344 23.6297 9.92864 24.0836 9.98501Z" fill="#2F3F47"/>
<path d="M24.8699 15.651C24.3972 15.651 23.8393 15.7075 23.6124 16.1209C23.4989 16.3276 23.4989 16.5719 23.5084 16.8068C23.6692 22.5011 23.8393 28.2048 24 33.8992C27.6213 34.8576 31.4789 35.8161 35.0435 34.6697C35.5257 28.421 35.6392 22.1535 35.3744 15.886C33.8994 15.5665 32.3677 15.5759 30.8549 15.5947C28.8694 15.6135 26.8744 15.6323 24.8699 15.651Z" fill="#E2ECED"/>
<path d="M35.6958 15.8859C35.6863 15.7543 35.6012 15.6133 35.4688 15.5851C33.8426 15.2563 32.1974 15.2657 30.5522 15.2845C28.6613 15.3032 26.7702 15.3221 24.8793 15.3314C23.6217 15.369 23.1869 15.8952 23.2152 17.1262C23.2719 18.9867 23.3192 20.8472 23.3759 22.7172C23.4799 26.4382 23.5934 30.1686 23.6974 33.8896C23.6974 34.0306 23.792 34.1527 23.9244 34.1903C27.5645 35.1581 31.4126 36.0978 35.1285 34.9609C35.2703 34.9138 35.3459 34.8011 35.3554 34.6601C35.8376 28.4208 35.951 22.1533 35.6958 15.8859ZM34.7597 34.4346C31.2897 35.4213 27.7158 34.5568 24.3214 33.6547C24.2363 30.6666 24.1512 27.6785 24.0661 24.6904C24.0188 23.1588 23.981 21.6272 23.9337 20.0862C23.9148 19.3156 23.8865 18.5545 23.8675 17.784C23.8581 17.4551 23.8487 17.1263 23.8392 16.7973C23.8203 16.149 24.3498 15.9704 24.8887 15.9517C26.5717 15.9328 28.2547 15.9235 29.9377 15.9046C31.6585 15.8859 33.3982 15.8295 35.1001 16.1396C35.3175 22.2474 35.2136 28.3456 34.7597 34.4346Z" fill="#2F3F47"/>
<path opacity="0.2" d="M30.3619 32.9784C30.447 32.8468 30.4943 32.7059 30.5415 32.5649C30.5983 32.3676 30.6455 32.1609 30.6077 31.9542C30.5793 31.7944 30.4943 31.6535 30.4091 31.5031C30.3808 31.4562 30.3524 31.3998 30.3241 31.3528C30.2768 31.2777 30.239 31.1931 30.1728 31.1273C30.012 30.9488 29.7567 30.8924 29.5204 30.8454C29.3502 30.8172 29.18 30.789 29.0004 30.8078C28.6127 30.8548 28.2818 31.1461 28.1494 31.5126C28.017 31.8696 28.0643 32.2831 28.225 32.6307C28.4331 33.0724 28.8586 33.4388 29.3502 33.4764C29.7568 33.5046 30.1539 33.3073 30.3619 32.9784Z" fill="#272525"/>
<path d="M30.0859 32.922C30.171 32.7905 30.2183 32.6495 30.2656 32.5086C30.3223 32.3113 30.3696 32.1045 30.3318 31.8978C30.3034 31.738 30.2183 31.5971 30.1427 31.4468C30.1143 31.3998 30.0859 31.3434 30.0576 31.2965C30.0103 31.2213 29.9724 31.1367 29.9062 31.0709C29.7456 30.8924 29.4902 30.836 29.2539 30.789C29.0837 30.7608 28.9135 30.7327 28.7339 30.7514C28.3462 30.7985 28.0153 31.0897 27.8829 31.4562C27.7505 31.8226 27.7978 32.2267 27.9586 32.5744C28.1665 33.016 28.592 33.3824 29.0837 33.42C29.4808 33.4576 29.8779 33.2509 30.0859 32.922Z" fill="#83959E"/>
<path opacity="0.2" d="M29.3198 32.3113C29.3954 32.208 29.4049 32.0858 29.4049 31.9637C29.4049 31.9261 29.4049 31.879 29.3955 31.8415C29.3766 31.7851 29.3293 31.7382 29.2725 31.7006C29.1118 31.5972 28.8848 31.5878 28.7147 31.6912C28.5539 31.7945 28.4594 32.02 28.5256 32.1986C28.6296 32.3113 28.7525 32.4053 28.9038 32.4429C29.0551 32.471 29.2252 32.4334 29.3198 32.3113Z" fill="black"/>
<path opacity="0.2" d="M30.4494 46.6787C30.5345 46.5471 30.5818 46.4062 30.629 46.2652C30.6857 46.0679 30.733 45.8612 30.6952 45.6544C30.6668 45.4947 30.5818 45.3538 30.5061 45.2034C30.4777 45.1565 30.4494 45.1 30.421 45.0531C30.3738 44.9779 30.3359 44.8933 30.2697 44.8275C30.109 44.649 29.8537 44.5927 29.6173 44.5456C29.4471 44.5175 29.2769 44.4893 29.0973 44.5081C28.7097 44.5551 28.3787 44.8464 28.2463 45.2128C28.114 45.5699 28.1612 45.9834 28.322 46.331C28.53 46.7727 28.9555 47.1391 29.4472 47.1767C29.8348 47.2143 30.2414 47.017 30.4494 46.6787Z" fill="#272525"/>
<path d="M30.1725 46.6317C30.2576 46.5001 30.3048 46.3592 30.3521 46.2182C30.4088 46.0209 30.4561 45.8141 30.4183 45.6074C30.3899 45.4477 30.3048 45.3067 30.2197 45.1564C30.1914 45.1094 30.1629 45.053 30.1346 45.006C30.0873 44.9308 30.0495 44.8463 29.9834 44.7805C29.8226 44.602 29.5673 44.5456 29.331 44.4987C29.1607 44.4704 28.9906 44.4422 28.8109 44.461C28.4233 44.508 28.0923 44.7993 27.9599 45.1657C27.8276 45.5228 27.8749 45.9363 28.0356 46.2839C28.2436 46.7256 28.6691 47.092 29.1607 47.1296C29.5579 47.1578 29.9644 46.9605 30.1725 46.6317Z" fill="#83959E"/>
<path opacity="0.2" d="M29.408 46.0209C29.4836 45.9176 29.4836 45.7954 29.493 45.6733C29.493 45.6357 29.493 45.5887 29.4835 45.5511C29.4646 45.4947 29.4174 45.4477 29.3607 45.4101C29.2 45.3067 28.973 45.2974 28.8028 45.4007C28.6421 45.5041 28.5475 45.7296 28.6137 45.9081C28.7177 46.0209 28.8406 46.1149 28.9919 46.1525C29.1337 46.1806 29.3134 46.143 29.408 46.0209Z" fill="black"/>
<path d="M43.2673 33.9367C43.3902 33.73 43.5131 33.5232 43.7117 33.3917C43.8724 33.2883 44.0615 33.2601 44.2506 33.2226C45.0448 33.1004 45.8485 33.044 46.6522 33.0534C47.1816 33.5702 47.6355 34.1716 47.9948 34.82C48.061 34.9422 48.1272 35.0737 48.1272 35.2052C48.1272 35.3086 48.0799 35.4119 48.0326 35.5153C47.5031 36.6335 46.9736 37.7423 46.4441 38.8605C45.9903 38.8417 45.5365 38.7571 45.0921 38.6162C45.3946 37.9396 45.7067 37.2537 46.0093 36.5771C46.3023 35.9288 46.586 35.13 46.1605 34.5569C45.6121 34.5944 45.0637 34.632 44.5059 34.6696C44.4113 34.679 44.3073 34.679 44.2317 34.726C44.1277 34.7823 44.071 34.8857 44.0143 34.9891C43.6644 35.6187 43.3713 36.2764 43.1255 36.9435C42.804 36.7932 42.492 36.6335 42.1705 36.4831C42.3123 35.5716 42.7945 34.7448 43.2673 33.9367Z" fill="#2F3F47"/>
<path d="M47.5309 33.683C47.5593 33.6642 47.5782 33.6267 47.5971 33.5891C47.7768 33.1851 47.9564 32.7715 48.136 32.3675C47.4931 32.0856 46.8312 31.8507 46.1505 31.6628C45.9708 32.0011 45.8384 32.3487 45.7345 32.7152C45.7155 32.7904 45.6966 32.8843 45.7439 32.9501C45.7723 32.9971 45.8195 33.0159 45.8669 33.0441C46.349 33.2978 46.8502 33.5045 47.3702 33.6736C47.4175 33.6924 47.4836 33.7112 47.5309 33.683Z" fill="#2F3F47"/>
<path d="M48.5241 32.1421C49.0536 31.5501 49.0725 29.7084 49.2049 28.9849C49.3846 28.0077 49.5736 27.0116 49.5263 26.0156C49.4791 25.0196 49.1954 24.0047 48.5336 23.253C48.1553 22.8301 47.6826 22.5013 47.1815 22.2288C45.6876 21.383 44.0047 20.8756 42.2933 20.7535C42.1609 20.7441 42.0096 20.7441 41.8962 20.8099C41.7732 20.8851 41.7165 21.0354 41.6787 21.1763C41.4991 21.712 41.2816 22.2851 41.1965 22.8395C41.0546 23.8168 40.9034 23.5067 41.5652 23.9295C42.0663 24.249 43.1253 24.2678 43.7304 24.5215C44.4301 24.8222 45.0919 25.2074 45.7444 25.5833C46.1603 25.8276 46.6048 26.1001 46.7655 26.5511C46.8506 26.7955 46.8316 27.068 46.8128 27.3311C46.6898 28.8909 46.4818 30.4413 46.1698 31.973C46.1131 32.2361 48.1176 32.471 48.439 32.2361C48.458 32.2079 48.4863 32.1797 48.5241 32.1421Z" fill="#516770"/>
<g opacity="0.15">
<path opacity="0.15" d="M46.8691 22.6329C46.6328 23.5349 46.2357 24.3243 45.7156 25.0948C45.6116 25.2451 45.8007 25.4143 45.9331 25.2827C46.6611 24.5874 47.1434 23.6947 47.427 22.7456C47.531 22.3886 46.9637 22.2759 46.8691 22.6329Z" fill="#272525"/>
<path opacity="0.15" d="M48.2137 23.5539C47.8733 24.409 47.3723 24.9165 46.6159 25.4239C46.5119 25.4896 46.5969 25.6588 46.7104 25.6117C47.1926 25.4239 47.6275 25.3299 48.0152 24.9634C48.3745 24.6251 48.6581 24.2211 48.7999 23.7513C48.904 23.4224 48.3366 23.2344 48.2137 23.5539Z" fill="#272525"/>
</g>
</svg>
